# xmcd
#
# Track frame offsets:
#	150
#	20237
#	30312
#	42990
#	55932
#	64577
#	84597
#	96687
#	111085
#	121437
#	136140
#	148147
#	162890
#	176085
#	190287
#	203567
#	212902
#	225667
#
# Disc length: 3124 seconds
#
# Revision: 1
# Processed by: cddbd v1.5.1PL2 Copyright (c) Steve Scherf et al.
# Submitted via: audiograbber 1.82.02
#
DISCID=070c3212
DTITLE=Various Artist - In The Jailhouse Now ~ Prison Songs And Murder Ballads
DYEAR=2005
DGENRE=Country
TTITLE0=Robin and Linda Williams - Step It Out Nancy
TTITLE1=The Osborne Brothers - Jesse James
TTITLE2=Mac Wiseman - Doin' My Time
TTITLE3=Merle Travis - Cocaine Blues
TTITLE4=Great American String Band - In The Jailhouse Now
TTITLE5=Robin and Linda Williams - Murderers On The Cumberland Plateau
TTITLE6=Great American String Band - Folsom Prison Blues
TTITLE7=Bobby Osborne/Benny Martin - East Nashville Robbery
TTITLE8=Great American String Band - Tom Dooley
TTITLE9=Merle Travis - Stack O' Lee
TTITLE10=Bass Mountain Boys - These Bars Are So Cold
TTITLE11=Great American String Band - Banks Of The Ohio
TTITLE12=The Osborne Brothers - The Prisoner's Song
TTITLE13=Tribute To Merle Haggard - I'm A Lonesome Fugitive
TTITLE14=Mac Wiseman - I'm Just Here To Get My Baby Out Of Jail
TTITLE15=Bass Mountain Boys - Take Me In Chains
TTITLE16=Mac Wiseman/The Osborne Brothers - Shackles And Chains
TTITLE17=Great American String Band - John Brown's Body
EXTD=
EXTT0=
EXTT1=
EXTT2=
EXTT3=
EXTT4=
EXTT5=
EXTT6=
EXTT7=
EXTT8=
EXTT9=
EXTT10=
EXTT11=
EXTT12=
EXTT13=
EXTT14=
EXTT15=
EXTT16=
EXTT17=
PLAYORDER=
